<svg height="512" width="512" xmlns="http://www.w3.org/2000/svg"><path d="M424.615 44.077a15 15 0 00-12.57-1.235A66913.642 66913.642 0 01292.447 84.55c-10.771-11.827-25.271-20.188-41.615-23.249-4.248-24.731-19.88-46.091-42.901-57.602l-4.223-2.111c-7.406-3.704-16.418-.701-20.124 6.708-3.705 7.409-.702 16.42 6.708 20.124l4.223 2.111c12.925 6.463 22.11 17.906 25.75 31.376-31.689 7.253-55.778 34.622-58.065 67.908-48.871 16.984-100.747 35.035-152.155 53.028A14.998 14.998 0 00.001 197H0v160h.013c.001 6.205 3.864 12.01 10.054 14.165l402 140a14.998 14.998 0 0010.201-.12c.406-.1.915-.213 1.514-.352 8.292-1.917 30.318-7.01 50.251-23.396C499.226 466.588 512 436.207 512 397V197c0-4.142-.993-102.014-87.385-152.923zM237 90c24.813 0 45 20.187 45 45s-20.187 45-45 45-45-20.187-45-45 20.187-45 45-45zm-70.654 70.133C176.703 189.162 204.458 210 237 210c41.355 0 75-33.645 75-75a74.65 74.65 0 00-3.995-24.099 65462.954 65462.954 0 00107.177-37.374C481.22 116.806 482 196.181 482 197c0 69.574-50.127 111.266-67.09 123.376l-82.955-29.034a14.997 14.997 0 00-13.635 1.925A14.996 14.996 0 00312 305.5V367c0 8.271-6.729 15-15 15s-15-6.729-15-15v-82.5a14.999 14.999 0 00-10.08-14.17L60.597 196.953a87152.216 87152.216 0 01105.749-36.82zM252 343.414L30 266.33v-48.244l222 77.084zM30 298.087l222.807 77.364C256.774 396.237 275.075 412 297 412c11.17 0 21.395-4.1 29.27-10.862L402 427.643v48.25L30 346.341zm372 97.771l-60.66-21.23c.426-2.481.66-5.027.66-7.627v-40.357l60 21zM482 397c0 41.032-16.4 67.328-50 79.975V345.059c11.016-7.779 32.194-24.785 50-51.129z"/><circle cx="412" cy="132" r="15"/><circle cx="432" cy="202" r="15"/><circle cx="382" cy="262" r="15"/><circle cx="352" cy="192" r="15"/></svg>